PathFileType	4	(X/Y/Z)	Patient4_TMGait_0pt8_01_left_33.trc.trc
DataRate	CameraRate	NumFrames	NumMarkers	Units	OrigDataRate	OrigDataStartFrame	OrigNumFrames
86.956521739130	86.956521739130	4	33	mm	86.956521739130	124	       141
Frame#	Time	Sacral			L.Shoulder			Chest			R.Shoulder			Neck			R.ASIS			L.ASIS			R.Thigh.Superior			R.Thigh.Lateral			R.Thigh.Inferior			R.Patella			L.Thigh.Superior			L.Thigh.Lateral			L.Thigh.Inferior			L.Patella			L.Shank.Superior			L.Shank.Lateral			L.Shank.Inferior			R.Shank.Superior			R.Shank.Lateral			R.Shank.Inferior			R.Heel			R.Midfoot.Superior			R.Midfoot.Lateral			R.Toe			L.Heel			L.Midfoot.Lateral			L.Midfoot.Superior			L.Toe			L.Elbow			L.Wrist			R.Elbow			R.Wrist			
		X1	Y1	Z1	X2	Y2	Z2	X3	Y3	Z3	X4	Y4	Z4	X5	Y5	Z5	X6	Y6	Z6	X7	Y7	Z7	X8	Y8	Z8	X9	Y9	Z9	X10	Y10	Z10	X11	Y11	Z11	X12	Y12	Z12	X13	Y13	Z13	X14	Y14	Z14	X15	Y15	Z15	X16	Y16	Z16	X17	Y17	Z17	X18	Y18	Z18	X19	Y19	Z19	X20	Y20	Z20	X21	Y21	Z21	X22	Y22	Z22	X23	Y23	Z23	X24	Y24	Z24	X25	Y25	Z25	X26	Y26	Z26	X27	Y27	Z27	X28	Y28	Z28	X29	Y29	Z29	X30	Y30	Z30	X31	Y31	Z31	X32	Y32	Z32	X33	Y33	Z33	

124	37.754500000000	871.232907043683	1000.742182195699	518.844243180933	1024.336880600143	1424.468521204509	323.386780970701	1152.642222702162	1350.319119242177	463.367308599961	1101.655214172638	1424.194788868599	648.831388842404	1036.020702808121	1481.452613518944	481.224259094286	1103.328132311510	927.850386576163	609.955960080840	1063.821699998657	943.883638802140	336.037397765419	1082.264072228500	713.025763077931	588.750430982169	969.710421277099	628.454434385013	654.180111966307	1020.243020330446	557.884486578137	573.143349895057	994.902668394995	474.606207164486	578.075454835773	1142.724258593271	767.742285931385	370.145864169483	1093.137370968184	634.041173233998	297.614388346142	1203.823321074339	581.733046148019	351.014313046613	1230.897968396223	516.852176656154	349.151106370847	1217.079147141395	443.142121197101	340.554669085750	1153.241959649238	309.419535204473	299.500288941523	1248.921877752166	216.445987832914	348.774953950905	951.370254665622	394.913671174340	585.621901145951	865.864482568827	304.200246249698	650.304273427980	889.244391275405	204.467437286035	583.617749874651	732.774389588205	50.010500702243	553.828135171847	906.814636244569	97.381976984225	587.775131186496	816.866411107984	39.049841334376	625.909262988359	1024.851491910908	38.752905186324	612.925079153497	1176.570006877251	39.947903858525	398.355461232208	1242.596002176569	43.830170622667	311.333239326134	1314.773345656945	119.795495610774	325.700804683028	1445.286542747720	88.461567966991	287.294572917000	846.285015475201	1121.958555132175	241.896525517914	767.243617561530	874.945906406986	264.829871613898	1289.317762152612	1147.204052115996	744.512102080445	1476.945209794335	1293.875388631670	672.680831022713	
125	37.766000000000	872.085545594426	999.472864184161	515.453257163392	1024.507035647940	1423.247603834415	321.038655002002	1152.640509437753	1349.485294871485	461.400552403890	1100.589152042893	1423.193668509597	646.601924116721	1035.435812892661	1480.145729507494	479.017188732364	1103.430124436878	926.427012224769	608.635482722612	1066.186416056477	942.390692191819	334.266990317557	1081.590602007090	711.313326202048	588.132982320077	968.021507300710	627.415644720902	652.730029986864	1018.845509460618	556.268525658304	572.262279220283	992.608090080282	472.556936512905	577.067421573008	1145.662098527409	766.559271821826	369.701888048868	1095.654402176425	632.531492678051	298.237282315020	1206.213076168477	580.291515054947	351.840635412780	1232.028638270762	513.743719993511	350.967579479031	1216.940845209943	439.505888550537	342.320114266818	1149.966781010903	307.295664852708	300.969132847026	1242.394347494882	211.908160927975	351.746389976070	947.767676394764	393.433673736967	584.681592431471	860.487929725429	304.373804081669	649.405484650888	882.230260264566	204.035190633768	583.350941871849	723.593871718158	51.119509661007	554.135543162545	898.009027297613	97.527082881245	587.981707561298	807.708946177197	39.468341057158	626.095070114827	1015.672212167797	38.539305002190	613.064036981154	1163.906906802893	38.592785322841	400.886147991336	1230.047768056864	40.866606563755	313.797261787817	1305.152113547163	113.698611269211	329.289061815850	1434.794763456207	77.541170644462	290.487864272001	843.729332760355	1123.201307565418	240.551742909382	761.741685043497	877.150711720165	264.326372070775	1292.522014829624	1149.729029341956	740.843215640392	1474.038431721018	1303.265378618311	668.722894444336	
126	37.777500000000	872.981742366580	998.299180979643	512.023767111534	1024.905739413001	1422.055231297377	318.487219826084	1152.730661044011	1348.766703845239	459.388017155254	1099.483047548107	1422.386580973303	644.284241273620	1034.994374863037	1479.014092417581	476.551155056247	1103.603258617959	925.111735297798	607.300379256409	1068.575568824539	941.122715532423	332.602495199402	1081.301517255791	709.722978153209	587.386141511439	966.851997196578	626.323005736520	651.066504040329	1018.134480727852	554.635713511938	571.189156219060	991.066216500063	470.303764608493	575.886570265317	1148.448738096197	765.396121254796	369.333508363419	1098.193982429813	631.476437087610	298.385165808362	1208.310028103226	579.004895940773	352.695689280465	1232.859808247124	510.986396667034	352.607777941555	1216.638210690128	436.345332464843	343.717313592071	1146.983417449495	305.626304043169	301.606149313133	1236.121200175643	208.038366977651	354.092758651312	944.744743707882	391.848286073282	583.588657060130	855.520215537565	304.649573871410	648.324609057670	875.477286883022	203.660937012236	583.005734899825	714.425814989707	52.555375298120	554.461120004187	889.322716986996	97.696101519126	588.171927862526	798.569244633936	40.044184822813	626.290718425223	1006.505770041006	38.330674029632	613.184830826782	1151.750876069155	37.662642544426	402.560707641418	1218.175353318686	38.575707937770	315.559545261274	1295.809426228625	108.548567930174	332.309713455697	1424.704101529973	68.157277784781	293.455423444467	842.213587211252	1123.840531474458	238.866469284047	757.620115439962	878.684090003140	263.350162960737	1294.773673507702	1151.737623622890	737.470179482484	1470.652466909199	1311.199697918404	665.128620418536	
127	37.789000000000	873.894270505849	997.280842326717	508.629341224134	1025.511747323603	1420.961340194587	315.779374146788	1152.897491105270	1348.220625754902	457.361660809016	1098.359186667620	1421.837909735748	641.912808211018	1034.690116899002	1478.123790620695	473.871523345245	1103.830125360827	923.974500336189	605.916295793020	1070.902257932941	940.156792263579	331.036386490142	1081.373736940777	708.324669955005	586.416411860504	966.264850287412	625.213797856193	649.202150269901	1018.147102019466	553.041172480110	569.899088050393	990.353072458481	467.876713071486	574.582369883938	1150.986849040275	764.363301782598	368.986653014680	1100.694874577432	630.937723453067	297.970686569811	1210.058116607210	577.971376004723	353.429786656321	1233.396252218905	508.715414661554	353.866623414621	1216.187923267388	433.760519172542	344.631120693794	1144.326018970731	304.469929524677	301.389627622986	1230.197268259477	204.946697203119	355.734983193111	942.339861811884	390.208391399643	582.384884194757	851.010135734562	305.106042583171	647.101204444339	869.043853853704	203.424315304495	582.607494699645	705.316475017056	54.448653024811	554.795825733130	880.813306667932	97.901931027761	588.347604957619	789.475104659792	40.849437883626	626.485204251690	997.354452584597	38.133552120192	613.274434572675	1140.381220124509	37.145070481286	403.472851874910	1207.175536322883	36.970573768799	316.647782385635	1286.855329629620	104.502662568047	334.639344884621	1415.130222309045	60.658926732756	295.966273018082	841.775230156519	1123.872127408273	236.809943200435	754.951133680957	879.504916875288	261.851338027660	1296.049239055007	1153.178437191728	734.448124012786	1466.849269133936	1317.681963968641	661.910834469139	
